<svg width="260" height="26" viewBox="0 0 260 26" fill="none" xmlns="http://www.w3.org/2000/svg">
<path d="M13.5963 20.4244H13.245C11.664 20.4244 10.7857 21.2956 10.7857 22.8637V23.2122H11.137C12.718 23.2122 13.5963 22.341 13.5963 20.7729V20.4244ZM0 26H2.98627V23.2122H2.18243C0.977106 23.2122 8.95358e-08 24.1823 3.0594e-08 25.3789L0 26ZM3.94788e-07 17.9851C3.17547e-07 19.5533 0.878314 20.4244 2.45928 20.4244H2.98627L2.98627 10.6672H2.45928C0.878314 10.6672 7.12335e-07 11.5384 6.35094e-07 13.1065L3.94788e-07 17.9851ZM8.92564e-07 7.87944H0.803838C2.00916 7.87944 2.98627 6.90939 2.98627 5.71278L2.98627 1.84438e-06L2.18243 1.80535e-06C0.977107 1.74683e-06 1.31401e-06 0.970051 1.24102e-06 2.16667L8.92564e-07 7.87944ZM2.98627 20.7729C2.98627 22.341 3.86458 23.2122 5.44554 23.2122H5.79687V22.8637C5.79687 21.2956 4.91856 20.4244 3.33759 20.4244H2.98627V20.7729ZM2.98627 10.6672H3.33759C4.91856 10.6672 5.79687 9.79604 5.79687 8.22792V7.87944H5.44554C3.86458 7.87944 2.98627 8.75062 2.98627 10.3187V10.6672ZM5.79687 23.5607C5.79687 25.1288 6.67518 26 8.25615 26H8.32641C9.90737 26 10.7857 25.1288 10.7857 23.5607V23.2122H5.79687V23.5607ZM5.79687 7.87944H10.7857V7.53097C10.7857 5.96285 9.90738 5.09167 8.32641 5.09167H8.25615C6.67518 5.09167 5.79687 5.96285 5.79687 7.53097V7.87944ZM10.7857 8.22792C10.7857 9.79604 11.664 10.6672 13.245 10.6672H13.5963V10.3187C13.5963 8.75062 12.718 7.87944 11.137 7.87944H10.7857V8.22792ZM13.5963 20.4244H14.1233C15.7042 20.4244 16.5826 19.5533 16.5826 17.9851V13.1065C16.5826 11.5384 15.7042 10.6672 14.1233 10.6672H13.5963L13.5963 20.4244Z" fill="white"/>
<path d="M19.2323 13.1065V26H20.0362C21.2415 26 22.2186 25.0299 22.2186 23.8333V10.6672L21.6916 10.6672C20.1106 10.6672 19.2323 11.5384 19.2323 13.1065ZM19.2323 7.87945H22.2186V5.09167H21.4147C20.2094 5.09167 19.2323 6.06172 19.2323 7.25834V7.87945ZM22.2186 10.6672H22.5699C24.1509 10.6672 25.0292 9.79604 25.0292 8.22792V7.87945H24.6779C23.0969 7.87945 22.2186 8.75063 22.2186 10.3188V10.6672ZM25.0292 7.87945L30.2991 7.87945V5.09167H27.4885C25.9075 5.09167 25.0292 5.96285 25.0292 7.53097V7.87945Z" fill="white"/>
<path d="M43.3601 20.4244H43.0088C41.4278 20.4244 40.5495 21.2956 40.5495 22.8637V23.2122H40.9009C42.4818 23.2122 43.3601 22.341 43.3601 20.7729V20.4244ZM29.7638 20.7729C29.7638 22.341 30.6422 23.2122 32.2231 23.2122H32.5744V16.5216C30.6422 16.5216 29.7638 17.3927 29.7638 18.9609V20.7729ZM30.4665 10.6672H33.2771V7.87945H32.9258C31.3448 7.87945 30.4665 8.75063 30.4665 10.3188V10.6672ZM32.5744 23.5607C32.5744 25.1288 33.4528 26 35.0337 26H38.0903C39.6712 26 40.5495 25.1288 40.5495 23.5607V23.2122L32.5744 23.2122V23.5607ZM32.5744 16.5216H41.6035V13.7338H35.0337C33.4528 13.7338 32.5744 14.9534 32.5744 16.5216ZM33.2771 7.87945L40.5495 7.87945V7.53097C40.5495 5.96285 39.6712 5.09167 38.0903 5.09167H35.0337C34.1554 5.09167 33.2771 5.96285 33.2771 7.53097V7.87945ZM40.5495 8.22792C40.5495 9.79604 41.4278 10.6672 43.0088 10.6672H43.3601V10.3188C43.3601 8.75063 42.4818 7.87945 40.9009 7.87945H40.5495V8.22792ZM43.3601 26H44.164C45.3693 26 46.3464 25.0299 46.3464 23.8333V23.2122H43.3601V26ZM43.3601 20.4244H43.8871C45.4681 20.4244 46.3464 19.5533 46.3464 17.9851V13.1065C46.3464 11.5384 45.4681 10.6672 43.8871 10.6672H43.3601V20.4244Z" fill="white"/>
<path d="M60.5899 23.2122H55.6713V23.5607C55.6713 25.1288 56.5497 26 58.1306 26C59.7116 26 60.5899 25.1288 60.5899 23.5607V23.2122ZM49.8745 17.9851C49.8745 19.5533 50.7528 20.4244 52.3338 20.4244H52.8607V7.25834C52.8607 6.06172 51.8836 5.09167 50.6783 5.09167L49.8745 5.09167V17.9851ZM52.8607 20.7729C52.8607 22.341 53.7391 23.2122 55.32 23.2122H55.6713V22.8637C55.6713 21.2956 54.793 20.4244 53.2121 20.4244H52.8607V20.7729ZM60.5899 23.2122H61.1169C62.6978 23.2122 63.5762 22.341 63.5762 20.7729V7.25834C63.5762 6.06172 62.5991 5.09167 61.3937 5.09167H60.5899V23.2122Z" fill="white"/>
<path d="M79.8005 20.4244H79.4492C77.8682 20.4244 76.9899 21.2956 76.9899 22.8637V23.2122H77.3413C78.9222 23.2122 79.8005 22.341 79.8005 20.7729V20.4244ZM66.2042 17.9851C66.2042 19.5533 67.0826 20.4244 68.6635 20.4244H69.1905V10.6672H68.6635C67.0826 10.6672 66.2042 11.5384 66.2042 13.1065V17.9851ZM69.1905 20.7729C69.1905 22.341 70.0688 23.2122 71.6498 23.2122H72.0011V22.8637C72.0011 21.2956 71.1228 20.4244 69.5418 20.4244H69.1905V20.7729ZM69.1905 10.6672H69.5418C71.1228 10.6672 72.0011 9.79604 72.0011 8.22792V7.87945H71.6498C70.0688 7.87945 69.1905 8.75063 69.1905 10.3188V10.6672ZM72.0011 23.5607C72.0011 25.1288 72.8794 26 74.4604 26H74.5307C76.1116 26 76.9899 25.1288 76.9899 23.5607V23.2122H72.0011V23.5607ZM72.0011 7.87945L76.9899 7.87945V7.53098C76.9899 5.96285 76.1116 5.09167 74.5307 5.09167H74.4604C72.8794 5.09167 72.0011 5.96285 72.0011 7.53098V7.87945ZM76.9899 8.22792C76.9899 9.79605 77.8682 10.6672 79.4492 10.6672H79.8005V10.3188C79.8005 8.75063 78.9222 7.87945 77.3413 7.87945H76.9899V8.22792ZM79.8005 20.4244H80.3275C81.9085 20.4244 82.7868 19.5533 82.7868 17.9851V13.1065C82.7868 11.5384 81.9085 10.6672 80.3275 10.6672H79.8005V20.4244Z" fill="white"/>
<path d="M124.387 20.4244H124.915V10.6672H124.387C122.804 10.6672 121.925 11.5384 121.925 13.1065V17.9851C121.925 19.5533 122.804 20.4244 124.387 20.4244ZM124.915 20.7729C124.915 22.341 125.795 23.2122 127.378 23.2122H127.729V22.8637C127.729 21.2956 126.85 20.4244 125.267 20.4244H124.915V20.7729ZM124.915 10.6672H125.267C126.85 10.6672 127.729 9.79604 127.729 8.22791V7.87944H127.378C125.795 7.87944 124.915 8.75062 124.915 10.3187V10.6672ZM127.729 23.5607C127.729 25.1288 128.609 26 130.192 26H130.262C131.845 26 132.725 25.1288 132.725 23.5607V23.2122H127.729V23.5607ZM127.729 7.87944L132.725 7.87944V7.53097C132.725 5.96284 131.845 5.09166 130.262 5.09166H130.192C128.609 5.09166 127.729 5.96284 127.729 7.53097V7.87944ZM132.725 23.2122H133.076C134.659 23.2122 135.539 22.341 135.539 20.7729V20.4244H135.187C133.604 20.4244 132.725 21.2956 132.725 22.8637V23.2122ZM132.725 8.22791C132.725 9.79604 133.604 10.6672 135.187 10.6672H135.539V10.3187C135.539 8.75062 134.659 7.87944 133.076 7.87944H132.725V8.22791ZM135.539 20.4244H136.067C137.65 20.4244 138.529 19.5533 138.529 17.9851V17.9154H135.539V20.4244ZM135.539 13.1762H138.529V13.1065C138.529 11.5384 137.65 10.6672 136.067 10.6672H135.539V13.1762Z" fill="white"/>
<path d="M153.903 20.4244H153.551C151.968 20.4244 151.089 21.2956 151.089 22.8637V23.2122H151.44C153.023 23.2122 153.903 22.341 153.903 20.7729V20.4244ZM140.289 17.9851C140.289 19.5533 141.168 20.4244 142.751 20.4244H143.279V10.6672H142.751C141.168 10.6672 140.289 11.5384 140.289 13.1065V17.9851ZM143.279 20.7729C143.279 22.341 144.159 23.2122 145.742 23.2122H146.093V22.8637C146.093 21.2956 145.214 20.4244 143.631 20.4244H143.279V20.7729ZM143.279 10.6672H143.631C145.214 10.6672 146.093 9.79604 146.093 8.22791V7.87944H145.742C144.159 7.87944 143.279 8.75062 143.279 10.3187V10.6672ZM146.093 23.5607C146.093 25.1288 146.973 26 148.556 26H148.626C150.209 26 151.089 25.1288 151.089 23.5607V23.2122H146.093V23.5607ZM146.093 7.87944H151.089V7.53097C151.089 5.96284 150.209 5.09166 148.626 5.09166H148.556C146.973 5.09166 146.093 5.96284 146.093 7.53097V7.87944ZM151.089 8.22791C151.089 9.79604 151.968 10.6672 153.551 10.6672H153.903V10.3187C153.903 8.75062 153.023 7.87944 151.44 7.87944H151.089V8.22791ZM153.903 20.4244H154.431C156.014 20.4244 156.893 19.5533 156.893 17.9851V13.1065C156.893 11.5384 156.014 10.6672 154.431 10.6672H153.903V20.4244Z" fill="white"/>
<path d="M159.533 23.8333C159.533 25.0299 160.51 26 161.715 26H162.523V2.16667C162.523 0.970049 161.546 9.77282e-08 160.34 3.92121e-08L159.533 0V23.8333Z" fill="white"/>
<path d="M166.045 23.8333C166.045 25.0299 167.022 26 168.227 26H169.035V2.16667C169.035 0.97005 168.058 4.13876e-07 166.852 3.5536e-07L166.045 3.16148e-07V23.8333Z" fill="white"/>
<path d="M174.14 20.4244H174.667V10.6672H174.14C172.557 10.6672 171.677 11.5384 171.677 13.1065V17.9851C171.677 19.5533 172.557 20.4244 174.14 20.4244ZM174.667 20.7729C174.667 22.341 175.547 23.2122 177.13 23.2122H177.482V22.8637C177.482 21.2956 176.602 20.4244 175.019 20.4244H174.667V20.7729ZM174.667 10.6672H175.019C176.602 10.6672 177.482 9.79604 177.482 8.22792V7.87944H177.13C175.547 7.87944 174.667 8.75062 174.667 10.3187V10.6672ZM176.426 17.3579H183.004C184.587 17.3579 185.467 16.1382 185.467 14.5701H176.426V17.3579ZM177.482 23.5607C177.482 25.1288 178.361 26 179.944 26L183.004 26C184.587 26 185.467 25.1288 185.467 23.5607V23.2122L177.482 23.2122V23.5607ZM177.482 7.87944H185.467V7.53097C185.467 5.96285 184.587 5.09167 183.004 5.09167H179.944C178.361 5.09167 177.482 5.96285 177.482 7.53097V7.87944ZM185.467 23.2122H185.819C187.402 23.2122 188.281 22.341 188.281 20.7729V20.4244H185.467V23.2122ZM185.467 14.5701C187.402 14.5701 188.281 13.6989 188.281 12.1308V10.3187C188.281 8.75062 187.402 7.87944 185.819 7.87944H185.467V14.5701Z" fill="white"/>
<path d="M192.504 20.4244H193.031V10.6672H192.504C190.921 10.6672 190.041 11.5384 190.041 13.1065V17.9851C190.041 19.5533 190.921 20.4244 192.504 20.4244ZM193.031 20.7729C193.031 22.341 193.911 23.2122 195.494 23.2122H195.846V22.8637C195.846 21.2956 194.966 20.4244 193.383 20.4244H193.031V20.7729ZM193.031 10.6672H193.383C194.966 10.6672 195.846 9.79604 195.846 8.22792V7.87944H195.494C193.911 7.87944 193.031 8.75062 193.031 10.3187V10.6672ZM195.846 23.5607C195.846 25.1288 196.725 26 198.308 26H198.378C199.961 26 200.841 25.1288 200.841 23.5607V23.2122H195.846V23.5607ZM195.846 7.87944L200.841 7.87944V7.53097C200.841 5.96285 199.961 5.09167 198.378 5.09167H198.308C196.725 5.09167 195.846 5.96285 195.846 7.53097V7.87944ZM200.841 23.2122H201.193C202.776 23.2122 203.655 22.341 203.655 20.7729V20.4244H203.303C201.72 20.4244 200.841 21.2956 200.841 22.8637V23.2122ZM200.841 8.22792C200.841 9.79604 201.72 10.6672 203.303 10.6672H203.655V10.3187C203.655 8.75062 202.776 7.87944 201.193 7.87944H200.841V8.22792ZM203.655 20.4244H204.183C205.766 20.4244 206.645 19.5533 206.645 17.9851V17.9154H203.655V20.4244ZM203.655 13.1762H206.645V13.1065C206.645 11.5384 205.766 10.6672 204.183 10.6672H203.655V13.1762Z" fill="white"/>
<path d="M211.747 23.2122H212.275V7.87945L209.285 7.87944V20.7729C209.285 22.341 210.164 23.2122 211.747 23.2122ZM209.285 2.65236C209.285 4.22049 210.164 5.09167 211.747 5.09167H212.275V3.11155e-06L209.285 2.96638e-06V2.65236ZM212.275 23.5607C212.275 25.1288 213.154 26 214.737 26H219.31V23.2122H212.275V23.5607ZM212.275 5.44014C212.275 7.00827 213.154 7.87945 214.737 7.87945H219.31V5.09167H212.275V5.44014Z" fill="white"/>
<path d="M221.053 23.8333C221.053 25.0299 222.03 26 223.235 26H224.043V7.25834C224.043 6.06172 223.066 5.09167 221.86 5.09167H221.053V23.8333ZM221.053 3.48472H224.043V2.16667C224.043 0.970052 223.066 3.08442e-06 221.86 3.0259e-06L221.053 2.98669e-06V3.48472Z" fill="white"/>
<path d="M240.299 20.4244H239.947C238.364 20.4244 237.485 21.2956 237.485 22.8637V23.2122H237.837C239.42 23.2122 240.299 22.341 240.299 20.7729V20.4244ZM226.685 17.9851C226.685 19.5533 227.565 20.4244 229.148 20.4244H229.675V10.6672H229.148C227.565 10.6672 226.685 11.5384 226.685 13.1065V17.9851ZM229.675 20.7729C229.675 22.341 230.555 23.2122 232.138 23.2122H232.49V22.8637C232.49 21.2956 231.61 20.4244 230.027 20.4244H229.675V20.7729ZM229.675 10.6672H230.027C231.61 10.6672 232.49 9.79604 232.49 8.22792V7.87945H232.138C230.555 7.87945 229.675 8.75063 229.675 10.3188V10.6672ZM232.49 23.5607C232.49 25.1288 233.369 26 234.952 26H235.023C236.606 26 237.485 25.1288 237.485 23.5607V23.2122H232.49V23.5607ZM232.49 7.87945L237.485 7.87945V7.53097C237.485 5.96285 236.606 5.09167 235.023 5.09167H234.952C233.369 5.09167 232.49 5.96285 232.49 7.53097V7.87945ZM237.485 8.22792C237.485 9.79604 238.364 10.6672 239.947 10.6672H240.299V10.3188C240.299 8.75063 239.42 7.87945 237.837 7.87945H237.485V8.22792ZM240.299 20.4244H240.827C242.41 20.4244 243.289 19.5533 243.289 17.9851V13.1065C243.289 11.5384 242.41 10.6672 240.827 10.6672H240.299V20.4244Z" fill="white"/>
<path d="M257.01 26H257.818C259.023 26 260 25.03 260 23.8333V10.3188C260 8.75063 259.121 7.87945 257.538 7.87945H257.01V26ZM245.929 26H246.737C247.942 26 248.919 25.03 248.919 23.8333V10.6672H248.391C246.808 10.6672 245.929 11.5384 245.929 13.1065V26ZM245.929 7.87945H248.919V5.09167H248.111C246.906 5.09167 245.929 6.06172 245.929 7.25834V7.87945ZM248.919 10.6672H249.271C250.854 10.6672 251.733 9.79604 251.733 8.22792V7.87945H251.381C249.798 7.87945 248.919 8.75063 248.919 10.3188V10.6672ZM251.733 7.87945L257.01 7.87945V7.53098C257.01 5.96285 256.13 5.09167 254.547 5.09167H254.196C252.613 5.09167 251.733 5.96285 251.733 7.53097V7.87945Z" fill="white"/>
<path d="M93.6989 13.1405C93.6989 10.1113 96.1546 7.65569 99.1837 7.65569H99.6498V13.1405H93.6989ZM93.6989 18.3487H99.0848V19.0308C99.0848 22.1189 97.3335 23.8242 94.1886 23.8242H93.6989V18.3395V18.3487ZM99.0848 18.0076C99.0848 14.9196 100.836 13.2142 103.981 13.2142H105.036V13.5553C105.036 16.6433 103.284 18.3487 100.139 18.3487H99.0848V18.0076ZM104.471 18.3487H110.421V23.8335H107.446H104.471V18.3487ZM105.036 12.5228C105.045 9.43478 106.787 7.72021 109.941 7.72021H110.431V13.205H105.045V12.5228H105.036Z" fill="white"/>
</svg>
