<svg width="356" height="36" viewBox="0 0 356 36" fill="none" xmlns="http://www.w3.org/2000/svg">
<path d="M18.6165 28.28H18.1354C15.9707 28.28 14.7681 29.4862 14.7681 31.6575V32.14H15.2491C17.4138 32.14 18.6165 30.9338 18.6165 28.7625V28.28ZM0 36H4.08889V32.14H2.98825C1.33788 32.14 1.22595e-07 33.4831 4.18903e-08 35.14L0 36ZM5.40556e-07 24.9025C4.34795e-07 27.0737 1.20261 28.28 3.36732 28.28H4.08889L4.08889 14.77H3.36732C1.20261 14.77 9.75351e-07 15.9763 8.6959e-07 18.1475L5.40556e-07 24.9025ZM1.22213e-06 10.91H1.10064C2.751 10.91 4.08889 9.56685 4.08889 7.91L4.08889 2.55375e-06L2.98825 2.49972e-06C1.33789 2.41869e-06 1.79918e-06 1.34315 1.69924e-06 3L1.22213e-06 10.91ZM4.08889 28.7625C4.08889 30.9338 5.2915 32.14 7.4562 32.14H7.93725V31.6575C7.93725 29.4862 6.73464 28.28 4.56993 28.28H4.08889V28.7625ZM4.08889 14.77H4.56993C6.73464 14.77 7.93725 13.5638 7.93725 11.3925V10.91H7.45621C5.2915 10.91 4.08889 12.1162 4.08889 14.2875V14.77ZM7.93725 32.6225C7.93725 34.7937 9.13986 36 11.3046 36H11.4008C13.5655 36 14.7681 34.7937 14.7681 32.6225V32.14H7.93725V32.6225ZM7.93725 10.91H14.7681V10.4275C14.7681 8.25625 13.5655 7.05 11.4008 7.05H11.3046C9.13986 7.05 7.93725 8.25625 7.93725 10.4275V10.91ZM14.7681 11.3925C14.7681 13.5638 15.9707 14.77 18.1354 14.77H18.6165V14.2875C18.6165 12.1162 17.4138 10.91 15.2491 10.91H14.7681V11.3925ZM18.6165 28.28H19.338C21.5027 28.28 22.7053 27.0737 22.7053 24.9025L22.7053 18.1475C22.7053 15.9763 21.5027 14.77 19.338 14.77H18.6165L18.6165 28.28Z" fill="black"/>
<path d="M26.3335 18.1475V36H27.4341C29.0845 36 30.4224 34.6569 30.4224 33V14.77L29.7008 14.77C27.5361 14.77 26.3335 15.9763 26.3335 18.1475ZM26.3335 10.91H30.4224V7.05H29.3217C27.6714 7.05 26.3335 8.39315 26.3335 10.05V10.91ZM30.4224 14.77H30.9034C33.0681 14.77 34.2707 13.5638 34.2707 11.3925V10.91H33.7897C31.625 10.91 30.4224 12.1163 30.4224 14.2875V14.77ZM34.2707 10.91H41.4864V7.05H37.638C35.4733 7.05 34.2707 8.25625 34.2707 10.4275V10.91Z" fill="black"/>
<path d="M59.37 28.28H58.889C56.7243 28.28 55.5217 29.4862 55.5217 31.6575V32.14H56.0027C58.1674 32.14 59.37 30.9338 59.37 28.7625V28.28ZM40.7536 28.7625C40.7536 30.9338 41.9562 32.14 44.1209 32.14H44.6019V22.876C41.9562 22.876 40.7536 24.0823 40.7536 26.2535V28.7625ZM41.7157 14.77H45.564V10.91H45.083C42.9183 10.91 41.7157 12.1163 41.7157 14.2875V14.77ZM44.6019 32.6225C44.6019 34.7937 45.8045 36 47.9692 36H52.1543C54.319 36 55.5217 34.7938 55.5217 32.6225V32.14H44.6019V32.6225ZM44.6019 22.876H56.9648V19.016H47.9692C45.8045 19.016 44.6019 20.7048 44.6019 22.876ZM45.564 10.91L55.5217 10.91V10.4275C55.5217 8.25625 54.319 7.05 52.1543 7.05H47.9692C46.7666 7.05 45.564 8.25625 45.564 10.4275V10.91ZM55.5217 11.3925C55.5217 13.5638 56.7243 14.77 58.889 14.77H59.37V14.2875C59.37 12.1163 58.1674 10.91 56.0027 10.91H55.5217V11.3925ZM59.37 36H60.4707C62.121 36 63.4589 34.6569 63.4589 33V32.14H59.37V36ZM59.37 28.28H60.0916C62.2563 28.28 63.4589 27.0738 63.4589 24.9025V18.1475C63.4589 15.9763 62.2563 14.77 60.0916 14.77H59.37V28.28Z" fill="black"/>
<path d="M82.9615 32.14H76.2269V32.6225C76.2269 34.7938 77.4295 36 79.5942 36C81.7589 36 82.9615 34.7938 82.9615 32.6225V32.14ZM68.2897 24.9025C68.2897 27.0738 69.4923 28.28 71.657 28.28H72.3785V10.05C72.3785 8.39315 71.0407 7.05 69.3903 7.05L68.2897 7.05V24.9025ZM72.3785 28.7625C72.3785 30.9338 73.5812 32.14 75.7459 32.14H76.2269V31.6575C76.2269 29.4862 75.0243 28.28 72.8596 28.28H72.3785V28.7625ZM82.9615 32.14H83.6831C85.8478 32.14 87.0504 30.9338 87.0504 28.7625V10.05C87.0504 8.39315 85.7125 7.05 84.0622 7.05H82.9615V32.14Z" fill="black"/>
<path d="M109.265 28.28H108.784C106.62 28.28 105.417 29.4862 105.417 31.6575V32.14H105.898C108.063 32.14 109.265 30.9338 109.265 28.7625V28.28ZM90.6489 24.9025C90.6489 27.0738 91.8515 28.28 94.0162 28.28H94.7378V14.77H94.0162C91.8515 14.77 90.6489 15.9763 90.6489 18.1475V24.9025ZM94.7378 28.7625C94.7378 30.9338 95.9404 32.14 98.1051 32.14H98.5861V31.6575C98.5861 29.4862 97.3835 28.28 95.2188 28.28H94.7378V28.7625ZM94.7378 14.77H95.2188C97.3835 14.77 98.5861 13.5638 98.5861 11.3925V10.91H98.1051C95.9404 10.91 94.7378 12.1163 94.7378 14.2875V14.77ZM98.5861 32.6225C98.5861 34.7938 99.7887 36 101.953 36H102.05C104.214 36 105.417 34.7938 105.417 32.6225V32.14H98.5861V32.6225ZM98.5861 10.91L105.417 10.91V10.4275C105.417 8.25626 104.214 7.05001 102.05 7.05001H101.953C99.7887 7.05001 98.5861 8.25625 98.5861 10.4275V10.91ZM105.417 11.3925C105.417 13.5638 106.62 14.77 108.784 14.77H109.265V14.2875C109.265 12.1163 108.063 10.91 105.898 10.91H105.417V11.3925ZM109.265 28.28H109.987C112.152 28.28 113.354 27.0738 113.354 24.9025V18.1475C113.354 15.9763 112.152 14.77 109.987 14.77H109.265V28.28Z" fill="black"/>
<path d="M170.315 28.28H171.038V14.77H170.315C168.148 14.77 166.943 15.9762 166.943 18.1475V24.9025C166.943 27.0737 168.148 28.28 170.315 28.28ZM171.038 28.7625C171.038 30.9337 172.242 32.14 174.409 32.14H174.891V31.6575C174.891 29.4862 173.687 28.28 171.519 28.28H171.038V28.7625ZM171.038 14.77H171.519C173.687 14.77 174.891 13.5637 174.891 11.3925V10.91H174.409C172.242 10.91 171.038 12.1162 171.038 14.2875V14.77ZM174.891 32.6225C174.891 34.7937 176.095 36 178.263 36H178.359C180.527 36 181.731 34.7937 181.731 32.6225V32.14H174.891V32.6225ZM174.891 10.91L181.731 10.91V10.4275C181.731 8.25625 180.527 7.05 178.359 7.05H178.263C176.095 7.05 174.891 8.25625 174.891 10.4275V10.91ZM181.731 32.14H182.212C184.38 32.14 185.584 30.9337 185.584 28.7625V28.28H185.102C182.935 28.28 181.731 29.4862 181.731 31.6575V32.14ZM181.731 11.3925C181.731 13.5637 182.935 14.77 185.102 14.77H185.584V14.2875C185.584 12.1162 184.38 10.91 182.212 10.91H181.731V11.3925ZM185.584 28.28H186.307C188.474 28.28 189.678 27.0737 189.678 24.9025V24.806H185.584V28.28ZM185.584 18.244H189.678V18.1475C189.678 15.9762 188.474 14.77 186.307 14.77H185.584V18.244Z" fill="black"/>
<path d="M210.729 28.28H210.247C208.079 28.28 206.875 29.4862 206.875 31.6575V32.14H207.357C209.524 32.14 210.729 30.9337 210.729 28.7625V28.28ZM192.088 24.9025C192.088 27.0737 193.292 28.28 195.46 28.28H196.182V14.77H195.46C193.292 14.77 192.088 15.9762 192.088 18.1475V24.9025ZM196.182 28.7625C196.182 30.9337 197.386 32.14 199.554 32.14H200.036V31.6575C200.036 29.4862 198.831 28.28 196.664 28.28H196.182V28.7625ZM196.182 14.77H196.664C198.831 14.77 200.036 13.5637 200.036 11.3925V10.91H199.554C197.386 10.91 196.182 12.1162 196.182 14.2875V14.77ZM200.036 32.6225C200.036 34.7937 201.24 36 203.407 36H203.504C205.671 36 206.875 34.7937 206.875 32.6225V32.14H200.036V32.6225ZM200.036 10.91H206.875V10.4275C206.875 8.25625 205.671 7.05 203.504 7.05H203.407C201.24 7.05 200.036 8.25625 200.036 10.4275V10.91ZM206.875 11.3925C206.875 13.5637 208.079 14.77 210.247 14.77H210.729V14.2875C210.729 12.1162 209.524 10.91 207.357 10.91H206.875V11.3925ZM210.729 28.28H211.451C213.619 28.28 214.823 27.0737 214.823 24.9025V18.1475C214.823 15.9762 213.619 14.77 211.451 14.77H210.729V28.28Z" fill="black"/>
<path d="M218.437 33C218.437 34.6568 219.775 36 221.425 36H222.531V3C222.531 1.34315 221.193 1.35316e-07 219.543 5.42937e-08L218.437 0V33Z" fill="black"/>
<path d="M227.353 33C227.353 34.6568 228.691 36 230.342 36H231.447V3C231.447 1.34315 230.11 5.73059e-07 228.459 4.92037e-07L227.353 4.37743e-07V33Z" fill="black"/>
<path d="M238.437 28.28H239.16V14.77H238.437C236.27 14.77 235.066 15.9762 235.066 18.1475V24.9025C235.066 27.0737 236.27 28.28 238.437 28.28ZM239.16 28.7625C239.16 30.9337 240.364 32.14 242.531 32.14H243.013V31.6575C243.013 29.4862 241.809 28.28 239.641 28.28H239.16V28.7625ZM239.16 14.77H239.641C241.809 14.77 243.013 13.5637 243.013 11.3925V10.91H242.531C240.364 10.91 239.16 12.1162 239.16 14.2875V14.77ZM241.568 24.034H250.575C252.743 24.034 253.947 22.3452 253.947 20.174H241.568V24.034ZM243.013 32.6225C243.013 34.7937 244.217 36 246.385 36L250.575 36C252.743 36 253.947 34.7937 253.947 32.6225V32.14L243.013 32.14V32.6225ZM243.013 10.91H253.947V10.4275C253.947 8.25625 252.743 7.05 250.575 7.05H246.385C244.217 7.05 243.013 8.25625 243.013 10.4275V10.91ZM253.947 32.14H254.429C256.596 32.14 257.8 30.9338 257.8 28.7625V28.28H253.947V32.14ZM253.947 20.174C256.596 20.174 257.8 18.9678 257.8 16.7965V14.2875C257.8 12.1162 256.596 10.91 254.429 10.91H253.947V20.174Z" fill="black"/>
<path d="M263.582 28.28H264.304V14.77H263.582C261.414 14.77 260.21 15.9762 260.21 18.1475V24.9025C260.21 27.0737 261.414 28.28 263.582 28.28ZM264.304 28.7625C264.304 30.9338 265.509 32.14 267.676 32.14H268.158V31.6575C268.158 29.4862 266.954 28.28 264.786 28.28H264.304V28.7625ZM264.304 14.77H264.786C266.954 14.77 268.158 13.5638 268.158 11.3925V10.91H267.676C265.509 10.91 264.304 12.1162 264.304 14.2875V14.77ZM268.158 32.6225C268.158 34.7937 269.362 36 271.529 36H271.626C273.793 36 274.997 34.7937 274.997 32.6225V32.14H268.158V32.6225ZM268.158 10.91L274.997 10.91V10.4275C274.997 8.25625 273.793 7.05 271.626 7.05H271.529C269.362 7.05 268.158 8.25625 268.158 10.4275V10.91ZM274.997 32.14H275.479C277.647 32.14 278.851 30.9338 278.851 28.7625V28.28H278.369C276.202 28.28 274.997 29.4862 274.997 31.6575V32.14ZM274.997 11.3925C274.997 13.5638 276.202 14.77 278.369 14.77H278.851V14.2875C278.851 12.1162 277.647 10.91 275.479 10.91H274.997V11.3925ZM278.851 28.28H279.573C281.741 28.28 282.945 27.0737 282.945 24.9025V24.806H278.851V28.28ZM278.851 18.244H282.945V18.1475C282.945 15.9763 281.741 14.77 279.573 14.77H278.851V18.244Z" fill="black"/>
<path d="M289.931 32.14H290.653V10.91L286.559 10.91V28.7625C286.559 30.9338 287.763 32.14 289.931 32.14ZM286.559 3.6725C286.559 5.84375 287.763 7.05 289.931 7.05H290.653V4.30829e-06L286.559 4.1073e-06V3.6725ZM290.653 32.6225C290.653 34.7937 291.857 36 294.025 36H300.286V32.14H290.653V32.6225ZM290.653 7.5325C290.653 9.70375 291.857 10.91 294.025 10.91H300.286V7.05H290.653V7.5325Z" fill="black"/>
<path d="M302.672 33C302.672 34.6569 304.01 36 305.66 36H306.766V10.05C306.766 8.39315 305.428 7.05 303.778 7.05H302.672V33ZM302.672 4.825H306.766V3C306.766 1.34315 305.428 4.27073e-06 303.778 4.18971e-06L302.672 4.13542e-06V4.825Z" fill="black"/>
<path d="M329.025 28.28H328.543C326.376 28.28 325.172 29.4862 325.172 31.6575V32.14H325.653C327.821 32.14 329.025 30.9338 329.025 28.7625V28.28ZM310.385 24.9025C310.385 27.0737 311.589 28.28 313.756 28.28H314.479V14.77H313.756C311.589 14.77 310.385 15.9763 310.385 18.1475V24.9025ZM314.479 28.7625C314.479 30.9338 315.683 32.14 317.85 32.14H318.332V31.6575C318.332 29.4862 317.128 28.28 314.96 28.28H314.479V28.7625ZM314.479 14.77H314.96C317.128 14.77 318.332 13.5638 318.332 11.3925V10.91H317.85C315.683 10.91 314.479 12.1163 314.479 14.2875V14.77ZM318.332 32.6225C318.332 34.7938 319.536 36 321.704 36H321.8C323.968 36 325.172 34.7938 325.172 32.6225V32.14H318.332V32.6225ZM318.332 10.91L325.172 10.91V10.4275C325.172 8.25625 323.968 7.05 321.8 7.05H321.704C319.536 7.05 318.332 8.25625 318.332 10.4275V10.91ZM325.172 11.3925C325.172 13.5638 326.376 14.77 328.543 14.77H329.025V14.2875C329.025 12.1163 327.821 10.91 325.653 10.91H325.172V11.3925ZM329.025 28.28H329.748C331.915 28.28 333.119 27.0738 333.119 24.9025V18.1475C333.119 15.9763 331.915 14.77 329.748 14.77H329.025V28.28Z" fill="black"/>
<path d="M351.906 36H353.012C354.662 36 356 34.6569 356 33V14.2875C356 12.1163 354.796 10.91 352.628 10.91H351.906V36ZM336.733 36H337.839C339.49 36 340.827 34.6569 340.827 33V14.77H340.105C337.937 14.77 336.733 15.9763 336.733 18.1475V36ZM336.733 10.91H340.827V7.05H339.722C338.071 7.05 336.733 8.39315 336.733 10.05V10.91ZM340.827 14.77H341.309C343.477 14.77 344.681 13.5638 344.681 11.3925V10.91H344.199C342.032 10.91 340.827 12.1163 340.827 14.2875V14.77ZM344.681 10.91L351.906 10.91V10.4275C351.906 8.25625 350.702 7.05 348.534 7.05H348.052C345.885 7.05 344.681 8.25625 344.681 10.4275V10.91Z" fill="black"/>
<path d="M128.295 18.1945C128.295 14.0003 131.696 10.6002 135.89 10.6002H136.443V18.1945H128.295ZM128.295 25.4059H135.67V26.3504C135.67 30.6262 133.272 32.9874 128.966 32.9874H128.295V25.3931V25.4059ZM135.67 24.9336C135.67 20.6578 138.068 18.2966 142.374 18.2966H143.818V18.7688C143.818 23.0446 141.42 25.4059 137.114 25.4059H135.67V24.9336ZM143.044 25.4059H151.192V33.0002H147.118H143.044V25.4059ZM143.818 17.3393C143.831 13.0635 146.216 10.6895 150.535 10.6895H151.205V18.2838H143.831V17.3393H143.818Z" fill="black"/>
</svg>
