<svg width="21" height="20" viewBox="0 0 21 20" fill="none" xmlns="http://www.w3.org/2000/svg">
<path fill-rule="evenodd" clip-rule="evenodd" d="M5.99952 16C4.89952 16 4.00952 16.9 4.00952 18C4.00952 19.1 4.89952 20 5.99952 20C7.09952 20 7.99952 19.1 7.99952 18C7.99952 16.9 7.09952 16 5.99952 16Z" fill="black"/>
<path fill-rule="evenodd" clip-rule="evenodd" d="M0.999512 2H1.99951L5.59951 9.59L4.24951 12.03C3.51951 13.37 4.47951 15 5.99951 15H16.9995C17.5495 15 17.9995 14.55 17.9995 14C17.9995 13.45 17.5495 13 16.9995 13H5.99951L7.09951 11H14.5495C15.2995 11 15.9595 10.59 16.2995 9.97L19.8795 3.48C20.2495 2.82 19.7695 2 19.0095 2H4.20951L3.53951 0.57C3.37951 0.22 3.01951 0 2.63951 0H0.999512C0.449512 0 -0.000488281 0.45 -0.000488281 1C-0.000488281 1.55 0.449512 2 0.999512 2Z" fill="black"/>
<path fill-rule="evenodd" clip-rule="evenodd" d="M15.9995 16C14.8995 16 14.0095 16.9 14.0095 18C14.0095 19.1 14.8995 20 15.9995 20C17.0995 20 17.9995 19.1 17.9995 18C17.9995 16.9 17.0995 16 15.9995 16Z" fill="black"/>
</svg>
