<svg width="55" height="55" viewBox="0 0 55 55" fill="none" xmlns="http://www.w3.org/2000/svg">
<path d="M51.3779 50.4453L50.4451 51.3781C46.2476 55.5756 41.5393 55.5312 37.2619 51.2538L35.8361 49.828L49.8278 35.8363L51.2536 37.2621C55.531 41.5395 55.5754 46.2478 51.3779 50.4453V50.4453ZM34.9033 50.7608C30.7058 54.9583 25.9975 54.9139 21.7201 50.6365L20.7696 49.6859L21.7024 48.7532C25.8999 44.5557 30.6082 44.6 34.8856 48.8775L35.8361 49.828L34.9033 50.7608ZM49.8278 35.8363L48.8773 34.8858C44.5998 30.6084 44.5555 25.9001 48.753 21.7026L49.6857 20.7698L50.6363 21.7203C54.9137 25.9977 54.9581 30.706 50.7606 34.9035L49.8278 35.8363ZM19.8368 50.6187C15.6393 54.8162 10.931 54.7718 6.65359 50.4944L-0.000166595 43.8407L7.46207 36.3784L20.7696 49.6859L19.8368 50.6187ZM49.6857 20.7698L36.3782 7.46226L43.8405 3.13369e-05L50.4942 6.65379C54.7716 10.9312 54.816 15.6395 50.6185 19.837L49.6857 20.7698Z" fill="black"/>
</svg>
