<svg width="50" height="92" viewBox="0 0 50 92" fill="none" xmlns="http://www.w3.org/2000/svg">
<path d="M8.06142 70.15H9.78887V92H0V78.2C0 73.3604 2.87908 70.15 8.06142 70.15ZM9.78887 57.5C9.78887 52.325 12.6679 49.45 17.8503 49.45H19.0019V62.1C19.0019 67.275 16.1228 70.15 10.9405 70.15H9.78887V57.5ZM19.0019 48.3C19.0019 43.125 22.5528 40.25 27.0633 40.25H31.094V41.4C31.094 46.575 28.215 49.45 23.0326 49.45H19.0019V48.3ZM31.094 27.6C31.094 22.425 33.9731 19.55 39.1555 19.55H40.2111V0H50V11.5C50 16.1958 47.1209 19.55 41.9386 19.55H40.3071V32.2C40.3071 37.375 37.428 40.25 32.2457 40.25H31.094V27.6V27.6Z" fill="black"/>
</svg>
