<svg width="18" height="17" viewBox="0 0 18 17" fill="none" xmlns="http://www.w3.org/2000/svg">
<path fill-rule="evenodd" clip-rule="evenodd" d="M4.55818 10.3678H5.34832L5.62837 10.1134C4.42816 8.79389 3.80805 6.99376 4.14811 5.08053C4.61819 2.46045 6.93861 0.368155 9.73911 0.0477134C13.9699 -0.442374 17.5305 2.91284 17.0104 6.89951C16.6703 9.53844 14.4499 11.725 11.6694 12.1679C9.63909 12.4884 7.72875 11.9041 6.3285 10.7731L6.05845 11.037V11.7815L1.79769 15.7871C1.38762 16.1735 0.727501 16.1735 0.317429 15.7871L0.307426 15.7776C-0.102646 15.3912 -0.102646 14.7692 0.307426 14.3828L4.55818 10.3678ZM10.5593 10.3679C13.0498 10.3679 15.0601 8.4735 15.0601 6.12674C15.0601 3.77997 13.0498 1.8856 10.5593 1.8856C8.06886 1.8856 6.05851 3.77997 6.05851 6.12674C6.05851 8.4735 8.06886 10.3679 10.5593 10.3679Z" fill="black"/>
</svg>
